<svg width="40" height="41" viewBox="0 0 40 41" fill="none" xmlns="http://www.w3.org/2000/svg">
<path d="M27.7782 14.2218C26.5801 13.0237 25.1541 12.1368 23.5982 11.5999C25.2646 10.4522 26.3594 8.53136 26.3594 6.35938C26.3594 2.85282 23.5066 0 20 0C16.4934 0 13.6406 2.85282 13.6406 6.35938C13.6406 8.53136 14.7354 10.4522 16.4019 11.5999C14.846 12.1368 13.4199 13.0237 12.2218 14.2218C10.1442 16.2995 9 19.0618 9 22H10.7188C10.7188 16.8823 14.8823 12.7188 20 12.7188C25.1177 12.7188 29.2812 16.8823 29.2812 22H31C31 19.0618 29.8558 16.2995 27.7782 14.2218ZM20 11C17.4412 11 15.3594 8.91825 15.3594 6.35938C15.3594 3.8005 17.4412 1.71875 20 1.71875C22.5588 1.71875 24.6406 3.8005 24.6406 6.35938C24.6406 8.91825 22.5588 11 20 11Z" fill="white"/>
<path d="M9.374 32.471C9.944 32.663 10.229 33.047 10.229 33.623C10.229 34.061 10.064 34.4 9.734 34.64C9.404 34.88 8.912 35 8.258 35H5.675V30.158H8.15C8.756 30.158 9.23 30.269 9.572 30.491C9.914 30.707 10.085 31.013 10.085 31.409C10.085 31.649 10.022 31.862 9.896 32.048C9.776 32.228 9.602 32.369 9.374 32.471ZM6.962 32.147H8.024C8.516 32.147 8.762 31.973 8.762 31.625C8.762 31.283 8.516 31.112 8.024 31.112H6.962V32.147ZM8.141 34.046C8.657 34.046 8.915 33.869 8.915 33.515C8.915 33.329 8.855 33.194 8.735 33.11C8.615 33.02 8.426 32.975 8.168 32.975H6.962V34.046H8.141ZM13.5416 35.072C13.0316 35.072 12.5726 34.967 12.1646 34.757C11.7626 34.541 11.4476 34.244 11.2196 33.866C10.9916 33.488 10.8776 33.059 10.8776 32.579C10.8776 32.099 10.9916 31.67 11.2196 31.292C11.4476 30.914 11.7626 30.62 12.1646 30.41C12.5726 30.194 13.0316 30.086 13.5416 30.086C14.0516 30.086 14.5076 30.194 14.9096 30.41C15.3116 30.62 15.6266 30.914 15.8546 31.292C16.0826 31.67 16.1966 32.099 16.1966 32.579C16.1966 33.059 16.0826 33.488 15.8546 33.866C15.6266 34.244 15.3116 34.541 14.9096 34.757C14.5076 34.967 14.0516 35.072 13.5416 35.072ZM13.5416 33.92C13.9016 33.92 14.1956 33.8 14.4236 33.56C14.6576 33.314 14.7746 32.987 14.7746 32.579C14.7746 32.171 14.6576 31.847 14.4236 31.607C14.1956 31.361 13.9016 31.238 13.5416 31.238C13.1816 31.238 12.8846 31.361 12.6506 31.607C12.4166 31.847 12.2996 32.171 12.2996 32.579C12.2996 32.987 12.4166 33.314 12.6506 33.56C12.8846 33.8 13.1816 33.92 13.5416 33.92ZM17.1623 30.158H18.5573V33.038L20.9153 30.158H22.2023V35H20.8073V32.12L18.4583 35H17.1623V30.158ZM19.5923 29.636C18.5363 29.636 18.0053 29.171 17.9993 28.241H18.9173C18.9233 28.451 18.9803 28.616 19.0883 28.736C19.2023 28.85 19.3673 28.907 19.5833 28.907C19.7993 28.907 19.9643 28.85 20.0783 28.736C20.1983 28.616 20.2583 28.451 20.2583 28.241H21.1943C21.1883 29.171 20.6543 29.636 19.5923 29.636ZM27.62 31.31H25.982V35H24.587V31.31H22.949V30.158H27.62V31.31ZM28.3684 30.158H29.7634V33.038L32.1214 30.158H33.4084V35H32.0134V32.12L29.6644 35H28.3684V30.158Z" fill="white"/>
</svg>
